<svg width="36" height="36" viewBox="0 0 36 36" fill="none" xmlns="http://www.w3.org/2000/svg">
<rect width="36" height="36" rx="18" fill="#F6F6F6"/>
<path d="M23.3333 24V22.6667C23.3333 21.9594 23.0523 21.2811 22.5522 20.781C22.0521 20.281 21.3739 20 20.6666 20H15.3333C14.626 20 13.9478 20.281 13.4477 20.781C12.9476 21.2811 12.6666 21.9594 12.6666 22.6667V24" stroke="#B1B2B2" stroke-width="2" stroke-linecap="round" stroke-linejoin="round"/>
<path d="M18 17.3333C19.4728 17.3333 20.6667 16.1394 20.6667 14.6667C20.6667 13.1939 19.4728 12 18 12C16.5273 12 15.3334 13.1939 15.3334 14.6667C15.3334 16.1394 16.5273 17.3333 18 17.3333Z" stroke="#B1B2B2" stroke-width="2" stroke-linecap="round" stroke-linejoin="round"/>
</svg>
