<svg width="14" height="15" viewBox="0 0 14 15" fill="none" xmlns="http://www.w3.org/2000/svg">
<path d="M7 1.92188C5.89675 1.92187 4.81828 2.24903 3.90096 2.86196C2.98364 3.47489 2.26868 4.34608 1.84649 5.36534C1.42429 6.38461 1.31383 7.50619 1.52906 8.58824C1.74429 9.67029 2.27556 10.6642 3.05567 11.4443C3.83579 12.2244 4.82971 12.7557 5.91176 12.9709C6.99381 13.1862 8.11539 13.0757 9.13466 12.6535C10.1539 12.2313 11.0251 11.5164 11.638 10.599C12.251 9.68172 12.5781 8.60325 12.5781 7.5C12.5764 6.02112 11.9881 4.60331 10.9424 3.55759C9.89669 2.51186 8.47888 1.92361 7 1.92188ZM7 12.4219C6.02655 12.4219 5.07495 12.1332 4.26556 11.5924C3.45616 11.0516 2.82531 10.2829 2.45278 9.38352C2.08026 8.48417 1.98279 7.49454 2.1727 6.53979C2.36261 5.58504 2.83137 4.70805 3.51971 4.01971C4.20805 3.33137 5.08504 2.86261 6.03979 2.6727C6.99454 2.48279 7.98417 2.58026 8.88352 2.95278C9.78288 3.32531 10.5516 3.95615 11.0924 4.76555C11.6332 5.57495 11.9219 6.52655 11.9219 7.5C11.9204 8.80492 11.4014 10.056 10.4787 10.9787C9.55598 11.9014 8.30492 12.4204 7 12.4219ZM5.14063 7.5C5.14063 7.89025 5.26342 8.27061 5.4916 8.5872C5.71978 8.90378 6.04179 9.14055 6.41202 9.26396C6.78224 9.38737 7.18191 9.39116 7.55441 9.2748C7.92691 9.15844 8.25335 8.92782 8.4875 8.61562C8.53979 8.54601 8.61759 8.50001 8.70379 8.48775C8.78999 8.4755 8.87753 8.49799 8.94715 8.55027C9.01677 8.60256 9.06277 8.68036 9.07502 8.76656C9.08728 8.85276 9.06479 8.9403 9.0125 9.00992C8.69563 9.43218 8.25395 9.74404 7.75 9.90135C7.24606 10.0587 6.70539 10.0534 6.20458 9.88642C5.70376 9.71941 5.26819 9.39907 4.95953 8.97077C4.65088 8.54248 4.48479 8.02793 4.48479 7.5C4.48479 6.97207 4.65088 6.45752 4.95953 6.02923C5.26819 5.60093 5.70376 5.28059 6.20458 5.11358C6.70539 4.94656 7.24606 4.94134 7.75 5.09865C8.25395 5.25596 8.69563 5.56782 9.0125 5.99008C9.06479 6.0597 9.08728 6.14724 9.07502 6.23344C9.06277 6.31964 9.01677 6.39744 8.94715 6.44973C8.87753 6.50201 8.78999 6.5245 8.70379 6.51225C8.61759 6.49999 8.53979 6.45399 8.4875 6.38438C8.25335 6.07217 7.92691 5.84156 7.55441 5.7252C7.18191 5.60884 6.78224 5.61263 6.41202 5.73604C6.04179 5.85945 5.71978 6.09622 5.4916 6.4128C5.26342 6.72939 5.14063 7.10975 5.14063 7.5Z" fill="#5A5A5A"/>
</svg>
