<svg width="24" height="25" viewBox="0 0 24 25" fill="none" xmlns="http://www.w3.org/2000/svg">
<path d="M21.9999 20.42V17.42C22.0121 16.9296 21.8436 16.4518 21.5265 16.0775C21.2093 15.7032 20.7657 15.4585 20.2799 15.39C19.3199 15.2634 18.3772 15.0285 17.4699 14.69C17.112 14.5554 16.723 14.5263 16.3491 14.6061C15.9751 14.6858 15.6318 14.8711 15.3599 15.14L14.0899 16.41C11.5864 14.9864 9.51349 12.9135 8.08993 10.41L9.35993 9.13998C9.6288 8.86809 9.81408 8.52482 9.89384 8.15086C9.9736 7.77689 9.94448 7.3879 9.80993 7.02997C9.47138 6.1227 9.23656 5.18004 9.10993 4.21997C9.04201 3.73942 8.80166 3.29996 8.43369 2.98351C8.06572 2.66705 7.59524 2.4952 7.10993 2.49997H4.10993C3.83227 2.50024 3.55771 2.55831 3.30372 2.6705C3.04974 2.78268 2.82189 2.94653 2.6347 3.1516C2.4475 3.35666 2.30506 3.59846 2.21643 3.8616C2.12781 4.12474 2.09494 4.40344 2.11993 4.67997C2.44818 7.77097 3.49991 10.7412 5.18993 13.35C6.72527 15.7661 8.77376 17.8146 11.1899 19.35C13.7869 21.0341 16.7428 22.0856 19.8199 22.42C20.0973 22.445 20.3769 22.4119 20.6407 22.3227C20.9045 22.2335 21.1468 22.0901 21.352 21.9018C21.5572 21.7136 21.7209 21.4845 21.8324 21.2293C21.944 20.9741 22.0011 20.6985 21.9999 20.42Z" stroke="#433F3E" stroke-width="2" stroke-linecap="round" stroke-linejoin="round"/>
</svg>
